<svg width="14" height="14" viewBox="0 0 14 14" fill="none" xmlns="http://www.w3.org/2000/svg">
    <g clip-path="url(#clip0_274_2316)">
        <path
            d="M6.41675 1.1665H5.25008C2.33341 1.1665 1.16675 2.33317 1.16675 5.24984V8.74984C1.16675 11.6665 2.33341 12.8332 5.25008 12.8332H8.75008C11.6667 12.8332 12.8334 11.6665 12.8334 8.74984V7.58317"
            stroke="#125BE9" stroke-linecap="round" stroke-linejoin="round" />
        <path
            d="M9.3566 1.76157L4.75993 6.35824C4.58493 6.53324 4.40993 6.8774 4.37493 7.12824L4.1241 8.88407C4.03076 9.5199 4.47993 9.96324 5.11576 9.87574L6.8716 9.6249C7.1166 9.5899 7.46076 9.4149 7.6416 9.2399L12.2383 4.64324C13.0316 3.8499 13.4049 2.92824 12.2383 1.76157C11.0716 0.594903 10.1499 0.968237 9.3566 1.76157V1.76157Z"
            stroke="#125BE9" stroke-miterlimit="10" stroke-linecap="round" stroke-linejoin="round" />
        <path
            d="M8.69751 2.4209C8.89094 3.10775 9.25749 3.73344 9.76207 4.23801C10.2666 4.74258 10.8923 5.10914 11.5792 5.30256"
            stroke="#125BE9" stroke-miterlimit="10" stroke-linecap="round" stroke-linejoin="round" />
    </g>
    <defs>
        <clipPath id="clip0_274_2316">
            <rect width="14" height="14" fill="white" />
        </clipPath>
    </defs>
</svg>