<svg width="15" height="14" viewBox="0 0 15 14" fill="none" xmlns="http://www.w3.org/2000/svg">
    <path d="M5.80625 1.1665L3.69458 3.284M9.52791 1.1665L11.6396 3.284" stroke="#CD1717" stroke-miterlimit="10"
        stroke-linecap="round" stroke-linejoin="round" />
    <path
        d="M1.83374 4.57926C1.83374 3.5001 2.41124 3.4126 3.12874 3.4126H12.2054C12.9229 3.4126 13.5004 3.5001 13.5004 4.57926C13.5004 5.83343 12.9229 5.74593 12.2054 5.74593H3.12874C2.41124 5.74593 1.83374 5.83343 1.83374 4.57926Z"
        stroke="#CD1717" />
    <path
        d="M6.36041 8.16683V10.2377M9.04374 8.16683V10.2377M2.70874 5.8335L3.53124 10.8735C3.71791 12.0052 4.16707 12.8335 5.83541 12.8335H9.35291C11.1671 12.8335 11.4354 12.0402 11.6454 10.9435L12.6254 5.8335"
        stroke="#CD1717" stroke-linecap="round" />
</svg>