<svg width="15" height="16" viewBox="0 0 15 16" fill="none" xmlns="http://www.w3.org/2000/svg">
<path d="M10.2562 3.30932C11.4687 3.30932 12.4437 4.28758 12.4437 5.49015C12.4437 6.6678 11.5062 7.62736 10.3375 7.67098C10.2835 7.66475 10.2289 7.66475 10.175 7.67098M11.4625 13.2788C11.9125 13.1854 12.3375 13.0047 12.6875 12.7367C13.6625 12.0077 13.6625 10.8051 12.6875 10.0761C12.3437 9.81443 11.925 9.63996 11.4812 9.54026M5.72495 7.58998C5.66245 7.58375 5.58745 7.58375 5.5187 7.58998C4.80133 7.5657 4.1216 7.264 3.62347 6.74878C3.12534 6.23355 2.84791 5.54527 2.84995 4.82967C2.84995 3.30309 4.08745 2.06313 5.62495 2.06313C6.3601 2.04991 7.0704 2.32838 7.59961 2.83727C8.12881 3.34617 8.43357 4.0438 8.44683 4.77671C8.46009 5.50961 8.18077 6.21775 7.67032 6.74534C7.15987 7.27293 6.4601 7.57676 5.72495 7.58998ZM2.59995 9.8892C1.08745 10.8986 1.08745 12.5436 2.59995 13.5468C4.3187 14.6933 7.13745 14.6933 8.8562 13.5468C10.3687 12.5373 10.3687 10.8924 8.8562 9.8892C7.1437 8.74893 4.32495 8.74893 2.59995 9.8892V9.8892Z" stroke="#DEDCDC" stroke-linecap="round" stroke-linejoin="round"/>
</svg>
