<svg width="15" height="16" viewBox="0 0 15 16" fill="none" xmlns="http://www.w3.org/2000/svg">
<g clip-path="url(#clip0_19_302)">
<path d="M7.4812 11.3824V2.66672M4.9812 13.8726C5.64424 13.8726 6.28013 13.6102 6.74897 13.1432C7.21781 12.6762 7.4812 12.0428 7.4812 11.3824C7.4812 10.722 7.21781 10.0886 6.74897 9.62157C6.28013 9.15457 5.64424 8.89221 4.9812 8.89221C4.31816 8.89221 3.68228 9.15457 3.21343 9.62157C2.74459 10.0886 2.4812 10.722 2.4812 11.3824C2.4812 12.0428 2.74459 12.6762 3.21343 13.1432C3.68228 13.6102 4.31816 13.8726 4.9812 13.8726V13.8726ZM9.1312 1.4901L11.8937 2.40525C12.5625 2.62937 13.1125 3.38265 13.1125 4.08613V4.81451C13.1125 5.76701 12.375 6.29618 11.4687 5.99736L8.7062 5.08221C8.03745 4.85809 7.48745 4.10481 7.48745 3.40133V2.66672C7.4812 1.72045 8.22495 1.18505 9.1312 1.4901V1.4901Z" stroke="#DEDCDC" stroke-linecap="round" stroke-linejoin="round"/>
</g>
<defs>
<clipPath id="clip0_19_302">
<rect width="15" height="14.9412" fill="white" transform="translate(0 0.176514)"/>
</clipPath>
</defs>
</svg>
