<svg width="15" height="15" viewBox="0 0 15 15" fill="none" xmlns="http://www.w3.org/2000/svg">
<g clip-path="url(#clip0_19_296)">
<path d="M3.9251 13.7549C4.44227 13.7549 4.93826 13.5502 5.30396 13.186C5.66965 12.8217 5.8751 12.3277 5.8751 11.8125C5.8751 11.2974 5.66965 10.8033 5.30396 10.4391C4.93826 10.0748 4.44227 9.87018 3.9251 9.87018C3.40793 9.87018 2.91194 10.0748 2.54624 10.4391C2.18054 10.8033 1.9751 11.2974 1.9751 11.8125C1.9751 12.3277 2.18054 12.8217 2.54624 13.186C2.91194 13.5502 3.40793 13.7549 3.9251 13.7549V13.7549Z" stroke="#DEDCDC" stroke-linecap="round" stroke-linejoin="round"/>
<path d="M13.025 10.5176V2.92252C13.025 1.30389 12.0062 1.07977 10.975 1.35992L7.075 2.41825C6.3625 2.61124 5.875 3.17154 5.875 3.98085V11.8063" stroke="#DEDCDC" stroke-linecap="round" stroke-linejoin="round"/>
<path d="M5.875 5.98547L13.025 4.04312M11.075 12.46C11.5922 12.46 12.0882 12.2553 12.4539 11.8911C12.8196 11.5268 13.025 11.0328 13.025 10.5176C13.025 10.0025 12.8196 9.50844 12.4539 9.14418C12.0882 8.77992 11.5922 8.57528 11.075 8.57528C10.5578 8.57528 10.0618 8.77992 9.69614 9.14418C9.33045 9.50844 9.125 10.0025 9.125 10.5176C9.125 11.0328 9.33045 11.5268 9.69614 11.8911C10.0618 12.2553 10.5578 12.46 11.075 12.46V12.46Z" stroke="#DEDCDC" stroke-linecap="round" stroke-linejoin="round"/>
</g>
<defs>
<clipPath id="clip0_19_296">
<rect width="15" height="14.9412" fill="white" transform="translate(0 0.0588074)"/>
</clipPath>
</defs>
</svg>
