<svg width="15" height="16" viewBox="0 0 15 16" fill="none" xmlns="http://www.w3.org/2000/svg">
<path d="M7.59995 7.68141C7.53745 7.67518 7.46245 7.67518 7.3937 7.68141C6.67633 7.65713 5.9966 7.35543 5.49847 6.84021C5.00034 6.32499 4.72291 5.6367 4.72495 4.9211C4.72495 3.39452 5.96245 2.15456 7.49995 2.15456C7.86396 2.14802 8.2257 2.21301 8.56451 2.34584C8.90332 2.47867 9.21257 2.67672 9.47461 2.9287C9.73664 3.18068 9.94633 3.48165 10.0917 3.81442C10.2371 4.14719 10.3153 4.50524 10.3218 4.86814C10.3284 5.23104 10.2632 5.59167 10.13 5.92945C9.99673 6.26723 9.79807 6.57554 9.54532 6.83677C9.29257 7.09801 8.99068 7.30706 8.65689 7.45198C8.32311 7.5969 7.96396 7.67486 7.59995 7.68141V7.68141ZM4.47495 9.98063C2.96245 10.99 2.96245 12.635 4.47495 13.6382C6.1937 14.7847 9.01245 14.7847 10.7312 13.6382C12.2437 12.6288 12.2437 10.9838 10.7312 9.98063C9.0187 8.84037 6.19995 8.84037 4.47495 9.98063V9.98063Z" stroke="#DEDCDC" stroke-linecap="round" stroke-linejoin="round"/>
</svg>
