<svg width="15" height="16" viewBox="0 0 15 16" fill="none" xmlns="http://www.w3.org/2000/svg">
    <path
        d="M7.5 10.0719C7.99728 10.0719 8.47419 9.87494 8.82583 9.52438C9.17746 9.17382 9.375 8.69836 9.375 8.2026C9.375 7.70683 9.17746 7.23137 8.82583 6.88081C8.47419 6.53025 7.99728 6.33331 7.5 6.33331C7.00272 6.33331 6.52581 6.53025 6.17417 6.88081C5.82254 7.23137 5.625 7.70683 5.625 8.2026C5.625 8.69836 5.82254 9.17382 6.17417 9.52438C6.52581 9.87494 7.00272 10.0719 7.5 10.0719V10.0719Z"
        stroke="#DEDCDC" stroke-miterlimit="10" stroke-linecap="round" stroke-linejoin="round" />
    <path
        d="M1.25 8.75092V7.65428C1.25 7.00626 1.78125 6.4704 2.4375 6.4704C3.56875 6.4704 4.03125 5.67284 3.4625 4.69458C3.1375 4.13379 3.33125 3.40477 3.9 3.08076L4.98125 2.4639C5.475 2.17105 6.1125 2.34551 6.40625 2.83776L6.475 2.95615C7.0375 3.9344 7.9625 3.9344 8.53125 2.95615L8.6 2.83776C8.89375 2.34551 9.53125 2.17105 10.025 2.4639L11.1063 3.08076C11.675 3.40477 11.8688 4.13379 11.5438 4.69458C10.975 5.67284 11.4375 6.4704 12.5688 6.4704C13.2188 6.4704 13.7563 7.00003 13.7563 7.65428V8.75092C13.7563 9.39894 13.225 9.9348 12.5688 9.9348C11.4375 9.9348 10.975 10.7324 11.5438 11.7106C11.8688 12.2776 11.675 13.0004 11.1063 13.3244L10.025 13.9413C9.53125 14.2342 8.89375 14.0597 8.6 13.5674L8.53125 13.4491C7.96875 12.4708 7.04375 12.4708 6.475 13.4491L6.40625 13.5674C6.1125 14.0597 5.475 14.2342 4.98125 13.9413L3.9 13.3244C3.62756 13.168 3.42849 12.9103 3.34647 12.6077C3.26444 12.3052 3.30617 11.9825 3.4625 11.7106C4.03125 10.7324 3.56875 9.9348 2.4375 9.9348C1.78125 9.9348 1.25 9.39894 1.25 8.75092V8.75092Z"
        stroke="#DEDCDC" stroke-miterlimit="10" stroke-linecap="round" stroke-linejoin="round" />
</svg>