<svg width="15" height="15" viewBox="0 0 15 15" fill="none" xmlns="http://www.w3.org/2000/svg">
    <path d="M6.1375 7.5H8.8625M14.0625 9.0625V5.9375M0.9375 9.0625V5.9375M10.7375 11.25C12.2375 11.25 12.6125 10.4062 12.6125 9.375V5.625C12.6125 4.59375 12.2375 3.75 10.7375 3.75C9.2375 3.75 8.8625 4.59375 8.8625 5.625V9.375C8.8625 10.4062 9.2375 11.25 10.7375 11.25ZM4.2625 11.25C2.7625 11.25 2.3875 10.4062 2.3875 9.375V5.625C2.3875 4.59375 2.7625 3.75 4.2625 3.75C5.7625 3.75 6.1375 4.59375 6.1375 5.625V9.375C6.1375 10.4062 5.7625 11.25 4.2625 11.25Z" stroke="#DEDCDC" stroke-linecap="round" stroke-linejoin="round"/>
</svg>
