<svg width="400" height="400" viewBox="0 0 400 400" fill="none" xmlns="http://www.w3.org/2000/svg">
<path d="M200.501 0.500626C226.529 0.565856 252.296 5.72401 276.346 15.686C300.397 25.6481 322.263 40.2201 340.715 58.5791L200.501 198.793V0.500626Z" fill="#FF0095" stroke="#1C1E2A"/>
<mask id="path-2-inside-1_119_837" fill="white">
<path d="M341.422 58.5786C359.994 77.1503 374.726 99.1982 384.777 123.463C394.828 147.728 400.001 173.736 400.001 200L200.001 200L341.422 58.5786Z"/>
</mask>
<path d="M341.422 58.5786C359.994 77.1503 374.726 99.1982 384.777 123.463C394.828 147.728 400.001 173.736 400.001 200L200.001 200L341.422 58.5786Z" fill="#FF0000" stroke="#1C1E2A" stroke-width="2" mask="url(#path-2-inside-1_119_837)"/>
<mask id="path-3-inside-2_119_837" fill="white">
<path d="M400.001 200C400.001 226.264 394.828 252.272 384.777 276.537C374.726 300.802 359.994 322.85 341.422 341.421L200.001 200L400.001 200Z"/>
</mask>
<path d="M400.001 200C400.001 226.264 394.828 252.272 384.777 276.537C374.726 300.802 359.994 322.85 341.422 341.421L200.001 200L400.001 200Z" fill="#FF7A00" stroke="#1C1E2A" stroke-width="2" mask="url(#path-3-inside-2_119_837)"/>
<mask id="path-4-inside-3_119_837" fill="white">
<path d="M341.422 341.421C322.85 359.993 300.802 374.725 276.537 384.776C252.272 394.827 226.265 400 200.001 400L200.001 200L341.422 341.421Z"/>
</mask>
<path d="M341.422 341.421C322.85 359.993 300.802 374.725 276.537 384.776C252.272 394.827 226.265 400 200.001 400L200.001 200L341.422 341.421Z" fill="#FFC700" stroke="#1C1E2A" stroke-width="2" mask="url(#path-4-inside-3_119_837)"/>
<mask id="path-5-inside-4_119_837" fill="white">
<path d="M200.001 400C173.736 400 147.729 394.827 123.464 384.776C99.1989 374.725 77.151 359.993 58.5793 341.421L200.001 200L200.001 400Z"/>
</mask>
<path d="M200.001 400C173.736 400 147.729 394.827 123.464 384.776C99.1989 374.725 77.151 359.993 58.5793 341.421L200.001 200L200.001 400Z" fill="#3CC008" stroke="#1C1E2A" stroke-width="2" mask="url(#path-5-inside-4_119_837)"/>
<mask id="path-6-inside-5_119_837" fill="white">
<path d="M0 200C2.29611e-06 173.736 5.17316 147.728 15.2241 123.463C25.2751 99.1981 40.007 77.1503 58.5787 58.5785L200 200L0 200Z"/>
</mask>
<path d="M0 200C2.29611e-06 173.736 5.17316 147.728 15.2241 123.463C25.2751 99.1981 40.007 77.1503 58.5787 58.5785L200 200L0 200Z" fill="#1100FF" stroke="#1C1E2A" stroke-width="2" mask="url(#path-6-inside-5_119_837)"/>
<mask id="path-7-inside-6_119_837" fill="white">
<path d="M58.5794 58.5786C77.1511 40.0069 99.1989 25.275 123.464 15.2241C147.729 5.17313 173.736 -1.2837e-05 200.001 0L200.001 200L58.5794 58.5786Z"/>
</mask>
<path d="M58.5794 58.5786C77.1511 40.0069 99.1989 25.275 123.464 15.2241C147.729 5.17313 173.736 -1.2837e-05 200.001 0L200.001 200L58.5794 58.5786Z" fill="#9900FF" stroke="#1C1E2A" stroke-width="2" mask="url(#path-7-inside-6_119_837)"/>
<mask id="path-8-inside-7_119_837" fill="white">
<path d="M58.5786 341.421C40.0069 322.85 25.275 300.802 15.2241 276.537C5.17314 252.271 -8.55801e-06 226.264 0 200L200 200L58.5786 341.421Z"/>
</mask>
<path d="M58.5786 341.421C40.0069 322.85 25.275 300.802 15.2241 276.537C5.17314 252.271 -8.55801e-06 226.264 0 200L200 200L58.5786 341.421Z" fill="#38A7F8" stroke="#1C1E2A" stroke-width="2" mask="url(#path-8-inside-7_119_837)"/>
<circle cx="200" cy="200" r="197" fill="#1C1E2A"/>
</svg>
